# xmcd CD database file
#
# Track frame offsets:
#	150
#	19053
#	35412
#	53421
#	74288
#	93112
#	109472
#
# Disc length: 1698 seconds
#
# Revision: 0
# Processed by: cddbd v1.5PL3 Copyright (c) Steve Scherf et al.
# Submitted via: CDex 1.50
#
DISCID=5106a007
DTITLE=UNDER17 - 恋のミルキーウェイ
DYEAR=1900
DGENRE=Game
TTITLE0=恋のミルキーウェイ 〜Master MIX Ver〜
TTITLE1=れもんのトキメキ 〜Master MIX Ver〜
TTITLE2=OS NO YES 〜Master MIX Ver〜
TTITLE3=恋のミルキーウェイ 〜space station REMIX〜
TTITLE4=恋のミルキーウェイ (INSTRUMENTAL)
TTITLE5=れもんのトキメキ (INSTRUMENTAL)
TTITLE6=OS NO YES (INSTRUMENTAL)
EXTD=
EXTT0=
EXTT1=
EXTT2=
EXTT3=
EXTT4=
EXTT5=
EXTT6=
PLAYORDER=
